<svg width="108" height="24" viewBox="0 0 108 24" fill="none" xmlns="http://www.w3.org/2000/svg">
<g clip-path="url(#clip0_1_71)">
<path d="M3.808 22.432C3.808 22.6667 3.85067 22.8267 3.936 22.912C4.04267 22.976 4.24533 23.04 4.544 23.104L5.696 23.36V24H0.832V23.36L2.016 23.104C2.336 23.04 2.53867 22.9653 2.624 22.88C2.73067 22.7947 2.784 22.6347 2.784 22.4V3.2C2.784 2.96533 2.73067 2.80533 2.624 2.72C2.53867 2.63467 2.336 2.56 2.016 2.496L0.832 2.24V1.6H9.024L15.616 15.84L21.504 1.6H29.952V2.24L28.768 2.496C28.448 2.56 28.2347 2.63467 28.128 2.72C28.0427 2.80533 28 2.96533 28 3.2V22.4C28 22.6347 28.0427 22.7947 28.128 22.88C28.2347 22.9653 28.448 23.04 28.768 23.104L29.952 23.36V24H19.584V23.36L20.736 23.104C21.0347 23.04 21.2267 22.976 21.312 22.912C21.4187 22.8267 21.472 22.6667 21.472 22.432V4.32L13.344 24H12.384L3.808 5.152V22.432Z" fill="white"/>
<path d="M34.784 3.2C34.784 2.96533 34.7307 2.80533 34.624 2.72C34.5387 2.63467 34.336 2.56 34.016 2.496L32.832 2.24V1.6H41.696L52 14.592V3.168C52 2.93333 51.9467 2.784 51.84 2.72C51.7547 2.63467 51.5627 2.56 51.264 2.496L50.112 2.24V1.6H54.976V2.24L53.792 2.496C53.472 2.56 53.2587 2.63467 53.152 2.72C53.0667 2.80533 53.024 2.96533 53.024 3.2V24H51.872L35.808 3.68V22.432C35.808 22.6667 35.8507 22.8267 35.936 22.912C36.0427 22.976 36.2453 23.04 36.544 23.104L37.696 23.36V24H32.832V23.36L34.016 23.104C34.336 23.04 34.5387 22.9653 34.624 22.88C34.7307 22.7947 34.784 22.6347 34.784 22.4V3.2Z" fill="white"/>
<path d="M72.848 22.4C72.848 22.6347 72.8907 22.7947 72.976 22.88C73.0827 22.9653 73.296 23.04 73.616 23.104L74.8 23.36V24H64.368V23.36L65.552 23.104C65.872 23.04 66.0747 22.9653 66.16 22.88C66.2667 22.7947 66.32 22.6347 66.32 22.4V2.496H65.584C64.2827 2.496 63.2693 2.70933 62.544 3.136C61.84 3.56267 61.296 4.11733 60.912 4.8C60.5493 5.48267 60.0907 6.57067 59.536 8.064H58.832V1.6H80.336V8.064H79.632C79.0773 6.57067 78.608 5.48267 78.224 4.8C77.8613 4.11733 77.3173 3.56267 76.592 3.136C75.888 2.70933 74.8853 2.496 73.584 2.496H72.848V22.4Z" fill="white"/>
<path d="M84.784 3.2C84.784 2.96533 84.7307 2.80533 84.624 2.72C84.5387 2.63467 84.336 2.56 84.016 2.496L82.832 2.24V1.6H91.696L102 14.592V3.168C102 2.93333 101.947 2.784 101.84 2.72C101.755 2.63467 101.563 2.56 101.264 2.496L100.112 2.24V1.6H104.976V2.24L103.792 2.496C103.472 2.56 103.259 2.63467 103.152 2.72C103.067 2.80533 103.024 2.96533 103.024 3.2V24H101.872L85.808 3.68V22.432C85.808 22.6667 85.8507 22.8267 85.936 22.912C86.0427 22.976 86.2453 23.04 86.544 23.104L87.696 23.36V24H82.832V23.36L84.016 23.104C84.336 23.04 84.5387 22.9653 84.624 22.88C84.7307 22.7947 84.784 22.6347 84.784 22.4V3.2Z" fill="white"/>
</g>
<defs>
<clipPath id="clip0_1_71">
<rect width="108" height="24" fill="white"/>
</clipPath>
</defs>
</svg>
